<?xml version="1.0" encoding="utf-8"?>
<!-- Generator: Adobe Illustrator 24.3.0, SVG Export Plug-In . SVG Version: 6.00 Build 0)  -->
<svg version="1.1" id="Capa_1" xmlns="http://www.w3.org/2000/svg" xmlns:xlink="http://www.w3.org/1999/xlink" x="0px" y="0px"
	 viewBox="0 0 1030.6 338.3" style="enable-background:new 0 0 1030.6 338.3;" xml:space="preserve">
<style type="text/css">
	.st0{fill:#FFFFFF;}
	.st1{enable-background:new    ;}
</style>
<g>
	<g>
		<g>
			<g>
				<path class="st0" d="M181.6,324.7c-0.4,0-0.8-0.1-1.2-0.2l-142.9-69c-0.9-0.4-1.5-1.4-1.5-2.5V85.4c0-1,0.6-2,1.5-2.5l142.9-69
					c0.4-0.2,0.8-0.2,1.2-0.2s0.8,0.1,1.2,0.2l142.9,69c0.9,0.4,1.5,1.4,1.5,2.5v167.5c0,1-0.6,2-1.5,2.5l-142.9,69
					C182.4,324.6,182,324.7,181.6,324.7z M196.4,144.5c1,0,2,0.6,2.5,1.5c0.3,0.7,0.4,1.4,0.1,2.1s-0.7,1.2-1.4,1.6l-13.2,6.4v161.4
					l137.4-66.3V89.8l-104.5,50.4c-0.4,0.2-0.8,0.2-1.2,0.2c-1,0-2-0.6-2.5-1.5c-0.3-0.7-0.4-1.4-0.1-2.1s0.7-1.2,1.4-1.6
					l103.3-49.9l-50-24.2l-139.7,67.5l-0.2,0.4l-0.4,0.6v55.9c0,1-0.5,1.8-1.3,2.3c-0.4,0.2-0.9,0.4-1.5,0.4c-0.4,0-0.8-0.1-1.2-0.2
					l-34.5-16.7c-0.9-0.4-1.5-1.4-1.5-2.5V112L41.7,89.7v161.4l137.4,66.3V156.2l-33-15.9c-1.4-0.7-2-2.3-1.3-3.7
					c0.5-1,1.4-1.5,2.5-1.5c0.4,0,0.8,0.1,1.2,0.2l33.3,16.1l13.6-6.6C195.6,144.6,196,144.5,196.4,144.5z M93.2,167.2l29,14v-52.4
					l-29-14V167.2z M93.9,109l31.3,15.1l136.3-65.8l-31.3-15.1L93.9,109z M45.1,85.4l42.8,20.7l0.9-0.7c0.2-0.1,0.3-0.2,0.5-0.3
					l134.8-65l-42.5-20.6L45.1,85.4z"/>
			</g>
		</g>
		<g>
			<path class="st0" d="M223.8,265.3c-5.5,0-10.6-2.2-14.4-6.1c-3.8-3.9-6-9.2-6-14.6c0-5.5,2.1-11.5,6-15.4s9-5.9,14.4-5.9l0,0
				c2,0,3.9,0.7,5.4,2.1V174c0-1.2,0.9-2.2,2-2.5l58.4-28.3c2.6-1.3,3,1.5,3,3c0,1.4,0,74.6,0,74.6c0,11.3-9.2,20.4-20.4,20.4l0,0
				c-11.3,0-20.4-9.2-20.4-20.4c0-5.5,2.1-10.6,6-14.4c3.9-3.9,9-6,14.4-6c2,0,3.8,0.2,5.4,0.7v-21l-33.4,16.6v46.7
				c0,5.5-2.1,11.8-6,15.7C234.4,263.1,229.3,265.3,223.8,265.3L223.8,265.3z M223.8,229.4L223.8,229.4c-4.1,0-8,1.5-10.9,4.4
				s-4.5,6.7-4.5,10.8s1.6,7.7,4.5,10.6s6.8,4.7,10.9,4.7l0,0c4.1,0,8-1.5,10.9-4.4s4.5-14.1,4.5-18.3v-42.4c0-1.2,0.8-2.2,2-2.5
				l38.4-18.8c1.7-0.7,3-0.1,3,2.6v29.2c0,1-0.7,2-1.7,2.3c-1,0.4-2.2,0-2.8-0.9c-0.6-0.8-2.9-1.7-5.9-1.7c-4.1,0-8,1.6-10.9,4.5
				s-4.5,6.8-4.5,10.9c0,8.5,6.9,15.4,15.4,15.4l0,0c8.5,0,15.4-6.9,15.4-15.4v-71.1l-53.5,26.3v57.5c0,1-0.2,2-1.7,2.1
				c-1.7,0-2.7-3.6-3.3-4.3C228.8,230.7,226.9,229.4,223.8,229.4L223.8,229.4z"/>
		</g>
	</g>
	<g class="st1">
		<path class="st0" d="M444.6,74.8c5.8,0,11.1,1,16,3.1c4.9,2.1,9.1,5.1,12.6,9l-7.8,8.2c-2.9-2.8-6.1-5-9.6-6.6
			c-3.5-1.6-7.3-2.4-11.5-2.4c-3.9,0-7.4,0.7-10.8,2.2c-3.3,1.4-6.2,3.4-8.6,5.9s-4.4,5.6-5.7,9.1c-1.4,3.5-2.1,7.4-2.1,11.5
			c0,4.2,0.7,8,2.1,11.5c1.4,3.5,3.3,6.5,5.7,9.1c2.4,2.6,5.3,4.6,8.6,6c3.3,1.4,6.9,2.2,10.8,2.2c4.2,0,8.2-0.8,11.8-2.5
			c3.6-1.7,6.8-3.9,9.6-6.5l7.6,8.3c-3.5,4-7.7,7-12.6,9c-4.9,2.1-10.2,3.1-16,3.1c-5.9,0-11.3-1-16.3-3.1c-4.9-2-9.1-4.8-12.6-8.4
			c-3.5-3.6-6.2-7.8-8.2-12.8c-1.9-4.9-2.9-10.2-2.9-15.9s1-11,2.9-15.9c1.9-4.9,4.6-9.1,8.2-12.7c3.5-3.6,7.7-6.4,12.6-8.4
			C433.2,75.8,438.6,74.8,444.6,74.8z"/>
		<path class="st0" d="M565.6,153.5h-12.1V142c-3.1,4-7,7.1-11.6,9.5c-4.6,2.4-10.2,3.5-16.6,3.5c-5.4,0-10.5-1-15.2-3
			c-4.7-2-8.8-4.8-12.2-8.4c-3.5-3.6-6.2-7.8-8.1-12.7c-2-4.9-3-10.3-3-16.1c0-5.8,1-11.1,3-16c2-4.9,4.7-9.2,8.1-12.7
			c3.4-3.6,7.5-6.3,12.2-8.4c4.7-2,9.8-3,15.2-3c6.4,0,11.9,1.2,16.6,3.6s8.5,5.5,11.6,9.5V76.3h12.1V153.5z M526.7,86.2
			c-4.1,0-7.9,0.7-11.3,2.2c-3.4,1.5-6.3,3.5-8.7,6.2c-2.4,2.6-4.3,5.7-5.6,9.1c-1.3,3.5-2,7.2-2,11.2c0,4,0.7,7.8,2,11.2
			c1.3,3.5,3.2,6.5,5.7,9.1c2.4,2.6,5.4,4.7,8.8,6.2c3.4,1.5,7.1,2.2,11.2,2.2c4,0,7.7-0.7,11.1-2.2c3.4-1.5,6.3-3.5,8.7-6
			c2.4-2.6,4.3-5.6,5.7-9.1c1.4-3.5,2-7.3,2-11.4s-0.7-7.9-2-11.4c-1.4-3.5-3.2-6.5-5.7-9.1c-2.4-2.6-5.3-4.6-8.7-6
			C534.4,86.9,530.7,86.2,526.7,86.2z"/>
		<path class="st0" d="M606.7,166.2c0,3.4-0.5,6.5-1.4,9.1c-0.9,2.6-2.2,4.8-3.9,6.6c-1.7,1.8-3.7,3.1-6,4s-5,1.4-7.9,1.4
			c-2,0-4-0.2-6-0.7s-3.7-1.1-5.1-1.9l2.9-10.5c1,0.5,2.1,0.9,3.3,1.2c1.2,0.3,2.5,0.4,3.8,0.4c2.5,0,4.5-0.8,5.9-2.4
			c1.4-1.6,2.2-4.2,2.2-7.8V76.3h12.2V166.2z M600.5,40.3c1.2,0,2.3,0.2,3.4,0.7c1.1,0.4,2,1,2.7,1.8c0.8,0.8,1.4,1.7,1.8,2.8
			c0.5,1.1,0.7,2.2,0.7,3.4c0,1.2-0.2,2.4-0.7,3.4c-0.5,1-1.1,1.9-1.8,2.7c-0.8,0.8-1.7,1.4-2.7,1.8c-1.1,0.4-2.2,0.7-3.4,0.7
			c-2.4,0-4.5-0.8-6.1-2.4s-2.4-3.7-2.4-6.1s0.8-4.5,2.4-6.2C596,41.1,598,40.3,600.5,40.3z"/>
		<path class="st0" d="M641.3,40.3c1.2,0,2.3,0.2,3.4,0.7c1.1,0.4,2,1,2.7,1.8c0.8,0.8,1.4,1.7,1.8,2.8c0.5,1.1,0.7,2.2,0.7,3.4
			c0,1.2-0.2,2.4-0.7,3.4c-0.5,1-1.1,1.9-1.8,2.7c-0.8,0.8-1.7,1.4-2.7,1.8c-1.1,0.4-2.2,0.7-3.4,0.7c-2.4,0-4.5-0.8-6.1-2.4
			s-2.4-3.7-2.4-6.1s0.8-4.5,2.4-6.2C636.8,41.1,638.9,40.3,641.3,40.3z M647.4,153.5h-12.2V76.3h12.2V153.5z"/>
		<path class="st0" d="M728.3,87.3H695v39c0,3,0.4,5.7,1.1,7.8c0.8,2.2,1.8,4,3.2,5.4c1.4,1.4,3,2.5,4.8,3.1c1.9,0.7,3.9,1,6.2,1
			c3,0,5.9-0.5,8.6-1.5c2.8-1,5.3-2.3,7.6-4l5.7,9.2c-2.9,2.2-6.3,4.1-10.1,5.5c-3.8,1.4-8.1,2.2-12.8,2.2c-4.2,0-7.9-0.6-11.2-1.7
			c-3.3-1.1-6-2.9-8.3-5.3s-4-5.3-5.2-8.9c-1.2-3.6-1.8-7.8-1.8-12.6V87.3H666v-11h16.9V51.8H695v24.5h33.3V87.3z"/>
		<path class="st0" d="M822.6,153.5h-12.1V142c-3.1,4-7,7.1-11.6,9.5c-4.6,2.4-10.2,3.5-16.6,3.5c-5.4,0-10.5-1-15.2-3
			c-4.7-2-8.8-4.8-12.2-8.4s-6.2-7.8-8.1-12.7c-2-4.9-3-10.3-3-16.1c0-5.8,1-11.1,3-16c2-4.9,4.7-9.2,8.1-12.7s7.5-6.3,12.2-8.4
			c4.7-2,9.8-3,15.2-3c6.4,0,11.9,1.2,16.6,3.6s8.5,5.5,11.6,9.5V76.3h12.1V153.5z M783.7,86.2c-4.1,0-7.9,0.7-11.3,2.2
			c-3.4,1.5-6.3,3.5-8.7,6.2c-2.4,2.6-4.3,5.7-5.6,9.1c-1.3,3.5-2,7.2-2,11.2c0,4,0.7,7.8,2,11.2c1.3,3.5,3.2,6.5,5.7,9.1
			c2.4,2.6,5.4,4.7,8.8,6.2c3.4,1.5,7.1,2.2,11.2,2.2c4,0,7.7-0.7,11.1-2.2c3.4-1.5,6.3-3.5,8.7-6c2.4-2.6,4.3-5.6,5.7-9.1
			c1.4-3.5,2-7.3,2-11.4s-0.7-7.9-2-11.4c-1.4-3.5-3.2-6.5-5.7-9.1c-2.4-2.6-5.3-4.6-8.7-6C791.4,86.9,787.7,86.2,783.7,86.2z"/>
	</g>
	<g class="st1">
		<path class="st0" d="M506.6,205.8c4.8,0,9.2,0.7,13.1,2.2c4,1.5,7.4,3.5,10.2,6.2c2.8,2.7,5,5.9,6.6,9.7c1.6,3.8,2.4,8,2.4,12.7
			v47.8h-12.1v-43.8c0-7.4-1.9-13.1-5.8-17.2c-3.9-4.1-9.4-6.1-16.5-6.1c-3.3,0-6.3,0.5-9.2,1.6c-2.9,1.1-5.4,2.7-7.5,4.7
			c-2.1,2-3.8,4.5-5.1,7.5c-1.3,2.9-1.9,6.2-1.9,9.9v43.5h-12.1v-43.8c0-7.4-1.9-13.1-5.8-17.2c-3.9-4.1-9.3-6.1-16.5-6.1
			c-3.3,0-6.3,0.5-9.2,1.6c-2.9,1.1-5.4,2.7-7.5,4.7c-2.1,2-3.8,4.5-5.1,7.5c-1.3,2.9-1.9,6.2-1.9,9.9v43.5h-12.2v-77.2h12.1v11
			c1.6-2.3,3.4-4.2,5.4-5.8c2-1.6,4.2-2.9,6.4-3.9c2.3-1,4.6-1.7,7-2.2c2.4-0.4,4.8-0.7,7.2-0.7c6.8,0,12.7,1.4,17.7,4.3
			c5,2.9,8.7,6.8,11.2,11.9c1.5-3,3.4-5.5,5.6-7.6c2.2-2.1,4.6-3.7,7.2-5c2.6-1.3,5.2-2.2,8-2.8
			C501.1,206.1,503.9,205.8,506.6,205.8z"/>
		<path class="st0" d="M635.7,252.3c0,5.7-1,10.7-2.9,14.9c-1.9,4.2-4.5,7.8-7.7,10.6c-3.2,2.8-7,4.9-11.2,6.2
			c-4.2,1.4-8.7,2-13.3,2c-4.7,0-9.1-0.7-13.4-2c-4.2-1.4-8-3.4-11.2-6.2c-3.2-2.8-5.8-6.3-7.7-10.6c-1.9-4.2-2.9-9.2-2.9-14.9v-45
			h12.1v43.8c0,4,0.6,7.5,1.7,10.4c1.1,2.9,2.7,5.4,4.8,7.3c2,1.9,4.5,3.4,7.3,4.3c2.8,1,5.9,1.4,9.2,1.4c3.3,0,6.4-0.5,9.1-1.4
			c2.8-0.9,5.2-2.4,7.2-4.3c2-1.9,3.6-4.4,4.8-7.3c1.1-2.9,1.7-6.4,1.7-10.4v-43.8h12.2V252.3z"/>
		<path class="st0" d="M715.1,223.7c-1.3-0.9-2.8-1.7-4.6-2.6c-1.8-0.8-3.8-1.6-6-2.3c-2.2-0.7-4.6-1.3-7-1.7
			c-2.5-0.4-5.1-0.7-7.7-0.7c-2.8,0-5.3,0.3-7.5,0.9c-2.2,0.6-4.1,1.4-5.7,2.4c-1.6,1-2.8,2.3-3.7,3.8c-0.9,1.5-1.3,3.2-1.3,5.1
			c0,3.3,1.3,5.7,4,7.4s6.6,2.8,11.7,3.4l9.1,1.1c8.2,1.1,14.6,3.4,19.1,6.8c4.5,3.5,6.8,8.4,6.8,14.7c0,3.7-0.8,7-2.4,9.9
			c-1.6,2.9-3.9,5.4-6.8,7.5c-2.9,2.1-6.5,3.7-10.7,4.8c-4.2,1.1-8.9,1.7-14.1,1.7c-2.5,0-5.1-0.2-7.9-0.5c-2.7-0.3-5.5-0.9-8.3-1.7
			c-2.8-0.8-5.6-1.8-8.3-3.1c-2.7-1.2-5.3-2.8-7.7-4.6l5.6-9.1c1.5,1.1,3.1,2.2,4.8,3.2c1.7,1,3.7,1.9,5.9,2.7
			c2.2,0.8,4.6,1.4,7.2,1.8c2.6,0.4,5.6,0.7,8.8,0.7c6.5,0,11.7-1.1,15.5-3.2c3.8-2.1,5.7-5.2,5.7-9.3c0-3.1-1.3-5.6-4-7.5
			c-2.6-1.9-6.7-3.1-12.2-3.8l-9.2-1.1c-8.7-1.1-15.2-3.5-19.3-7.2c-4.1-3.7-6.2-8.4-6.2-14.2c0-3.6,0.7-6.9,2.2-9.8
			c1.5-2.9,3.5-5.4,6.2-7.4s5.9-3.5,9.7-4.6c3.8-1.1,8-1.6,12.6-1.6c6.1,0,11.8,0.8,17.1,2.3c5.3,1.5,9.8,3.6,13.6,6.1L715.1,223.7z
			"/>
		<path class="st0" d="M749.9,171.3c1.2,0,2.3,0.2,3.4,0.7c1.1,0.4,2,1,2.7,1.8c0.8,0.8,1.4,1.7,1.8,2.8c0.5,1.1,0.7,2.2,0.7,3.4
			c0,1.2-0.2,2.4-0.7,3.4c-0.5,1-1.1,1.9-1.8,2.7c-0.8,0.8-1.7,1.4-2.7,1.8c-1.1,0.4-2.2,0.7-3.4,0.7c-2.4,0-4.5-0.8-6.1-2.4
			c-1.6-1.6-2.4-3.7-2.4-6.1s0.8-4.5,2.4-6.2C745.4,172.1,747.4,171.3,749.9,171.3z M756,284.5h-12.2v-77.2H756V284.5z"/>
		<path class="st0" d="M818.6,205.8c5.8,0,11.1,1,16,3.1c4.9,2.1,9.1,5.1,12.6,9l-7.8,8.2c-2.9-2.8-6.1-5-9.6-6.6
			c-3.5-1.6-7.3-2.4-11.5-2.4c-3.9,0-7.4,0.7-10.8,2.2c-3.3,1.4-6.2,3.4-8.6,5.9c-2.4,2.5-4.4,5.6-5.7,9.1
			c-1.4,3.5-2.1,7.4-2.1,11.5c0,4.2,0.7,8,2.1,11.5s3.3,6.5,5.7,9.1c2.4,2.6,5.3,4.6,8.6,6c3.3,1.4,6.9,2.2,10.8,2.2
			c4.2,0,8.2-0.8,11.8-2.5c3.6-1.7,6.8-3.9,9.6-6.5l7.6,8.3c-3.5,4-7.7,7-12.6,9c-4.9,2.1-10.2,3.1-16,3.1c-5.9,0-11.3-1-16.3-3.1
			c-4.9-2-9.1-4.8-12.6-8.4s-6.2-7.8-8.2-12.8s-2.9-10.2-2.9-15.9s1-11,2.9-15.9c1.9-4.9,4.6-9.1,8.2-12.7s7.7-6.4,12.6-8.4
			C807.2,206.8,812.6,205.8,818.6,205.8z"/>
		<path class="st0" d="M939.6,284.5h-12.1V273c-3.1,4-7,7.1-11.6,9.5c-4.6,2.4-10.2,3.5-16.6,3.5c-5.4,0-10.5-1-15.2-3
			c-4.7-2-8.8-4.8-12.2-8.4c-3.5-3.6-6.2-7.8-8.2-12.7c-2-4.9-3-10.3-3-16.1c0-5.8,1-11.1,3-16c2-4.9,4.7-9.2,8.2-12.7
			c3.4-3.6,7.5-6.3,12.2-8.4c4.7-2,9.8-3,15.2-3c6.4,0,11.9,1.2,16.6,3.6s8.5,5.5,11.6,9.5v-11.5h12.1V284.5z M900.7,217.2
			c-4.1,0-7.9,0.7-11.3,2.2c-3.4,1.5-6.3,3.5-8.7,6.2c-2.4,2.6-4.3,5.7-5.6,9.1c-1.3,3.5-2,7.2-2,11.2c0,4,0.7,7.8,2,11.2
			c1.3,3.5,3.2,6.5,5.7,9.1c2.4,2.6,5.4,4.7,8.8,6.2c3.4,1.5,7.1,2.2,11.2,2.2c4,0,7.7-0.7,11.1-2.2c3.4-1.5,6.3-3.5,8.7-6
			c2.4-2.6,4.3-5.6,5.7-9.1c1.4-3.5,2-7.3,2-11.4c0-4.1-0.7-7.9-2-11.4c-1.4-3.5-3.2-6.5-5.7-9.1c-2.4-2.6-5.3-4.6-8.7-6
			C908.4,217.9,904.7,217.2,900.7,217.2z"/>
		<path class="st0" d="M980.3,284.5h-12.2V167.1h12.2V284.5z"/>
	</g>
</g>
</svg>
